<?xml version="1.0" encoding="utf-8"?>
<!-- Generator: Adobe Illustrator 16.0.0, SVG Export Plug-In . SVG Version: 6.00 Build 0)  -->
<!DOCTYPE svg PUBLIC "-//W3C//DTD SVG 1.1//EN" "http://www.w3.org/Graphics/SVG/1.1/DTD/svg11.dtd">
<svg version="1.1" id="Layer_1" xmlns="http://www.w3.org/2000/svg" xmlns:xlink="http://www.w3.org/1999/xlink" x="0px" y="0px"
	 width="425.2px" height="425.2px" viewBox="0 0 425.2 425.2" enable-background="new 0 0 425.2 425.2" xml:space="preserve">
<g>
	<g>
		<path fill-rule="evenodd" clip-rule="evenodd" fill="#B0241C" d="M363.994,112.762c3.35,0.494,6.535,2.703,9.528,2.602
			c-2.564-3.115-4.552-6.805-6.926-10.106c-3.162-0.495-6.303-1.017-9.244-1.729C359.152,107.021,362.152,109.313,363.994,112.762"
			/>
		<path fill-rule="evenodd" clip-rule="evenodd" fill="#B0241C" d="M196.718,35.531v47.352h32.915v-8.086h-14.722
			c0.181-4.146-0.374-9.031,0.282-12.699h12.129v-7.223c-4.648-0.15-9.275,0.198-12.411-0.283V43.615h13.281
			c-0.074-2.605,0.097-6.392,0-8.084H196.718z"/>
		<path fill-rule="evenodd" clip-rule="evenodd" fill="#B0241C" d="M149.66,46.217c4.223,15.218,8.581,30.291,12.987,45.329
			c9.959-2.46,19.124-5.711,29.16-8.086c-0.481-2.786-1.537-4.999-2.022-7.795c-4.169,0.824-7.605,2.396-11.837,3.175
			c-3.487-12.58-7.187-24.949-10.678-37.535C161.287,42.824,155.692,44.743,149.66,46.217"/>
		<path fill-rule="evenodd" clip-rule="evenodd" fill="#B0241C" d="M266.586,42.174c-5.915,14.67-12.461,28.73-18.183,43.598
			c9.589,3.593,18.337,8.027,27.998,11.548c0.813-2.562,2.01-4.729,2.891-7.216c-3.566-1.73-7.663-2.924-10.964-4.914
			c4.903-12.125,10.401-23.658,15.005-36.09C277.554,46.995,272.294,44.365,266.586,42.174"/>
		<path fill-rule="evenodd" clip-rule="evenodd" fill="#B0241C" d="M279.583,99.051c8.915,6.578,17.219,13.769,26.267,20.213
			c1.288-2.37,3.31-4.011,4.622-6.354c-2.052-1.254-3.429-2.813-5.772-4.621c-1.199-0.922-5.722-3.163-5.774-4.617
			c-0.005-0.135,1.796-2.027,2.023-2.312c2.168-2.741,3.854-5.159,5.771-7.219c1.295,0.97,2.975,2.225,4.909,3.757
			c1.196,0.941,4.006,3.864,4.907,3.752c1.512-0.193,3.245-5.174,4.331-5.773c-2.909-2.87-6.535-5.008-9.525-7.795
			c2.331-2.868,4.376-6.02,6.925-8.663c3.585,2.671,6.798,5.716,10.686,8.087c1.313-2.346,3.252-4.062,4.614-6.354
			c-8.578-6.237-16.54-13.101-25.112-19.345C299.008,74.396,289.114,86.551,279.583,99.051"/>
		<path fill-rule="evenodd" clip-rule="evenodd" fill="#B0241C" d="M95.669,79.707c-4.19,4.178-8.576,8.17-12.991,12.127
			c10.233,11.897,21.505,22.762,31.763,34.645c4.94-3.618,8.777-8.348,13.564-12.127C117.573,102.464,106.829,90.869,95.669,79.707"
			/>
		<path fill-rule="evenodd" clip-rule="evenodd" fill="#B0241C" d="M376.594,144.958c-14.935,4.126-30.075,8.042-45.046,12.127
			c1.006,5.06,2.4,9.72,3.759,14.432c5.151-1.286,11.374-2.979,16.45-4.332c1.608-0.425,3.879-1.765,4.914,0
			c-5.478,5.981-12.586,10.323-18.189,16.169c1.234,5.215,2.64,10.264,4.04,15.301c15.135-4.016,30.179-8.121,45.329-12.121
			c-0.835-5.137-2.587-9.35-3.463-14.438c-5.348,1.006-11.349,2.975-16.459,4.332c-1.48,0.394-4.115,1.699-4.912-0.288
			c5.562-5.993,12.342-10.763,17.901-16.75C379.16,154.893,378.639,149.162,376.594,144.958"/>
		<path fill-rule="evenodd" clip-rule="evenodd" fill="#B0241C" d="M37.35,192.599c2.549,0.526,4.806,1.345,7.507,1.729
			c1.248-3.566,1.633-7.986,3.174-11.262c12.853,2.837,25.071,6.299,37.821,9.24c1.416-5.9,2.927-11.7,4.333-17.609
			c-12.375-3.514-25.696-6.064-37.826-9.818c0.729-3.893,1.893-7.342,2.603-11.262c-2.653-0.521-4.854-1.495-7.801-1.732
			C44.142,165.512,40.04,179.596,37.35,192.599"/>
		<path fill-rule="evenodd" clip-rule="evenodd" fill="#B0241C" d="M136.09,82.881c3.64,5.414,7.148,10.949,10.972,16.171
			c-4.835,3.728-10.044,7.086-15.303,10.394c-8.515-13.047-17.361-25.753-25.985-38.689c3.496-3.201,9.056-6.695,14.72-10.393
			c5.337-3.48,10.655-7.898,16.46-8.662c5.689-0.755,8.446,3.271,10.687,6.643c1.403,2.111,4.286,5.459,4.332,8.656
			c0.042,4.037-4.067,7.184-6.643,9.245C142.038,78.871,139.209,80.859,136.09,82.881 M137.535,72.203
			c0.224-2.567-4.09-9.548-7.507-9.533c-2.22,0.013-3.509,1.633-5.493,3.18c2.699,3.85,5.067,8.021,8.088,11.545
			C134.526,75.619,137.293,74.887,137.535,72.203"/>
		<path fill-rule="evenodd" clip-rule="evenodd" fill="#B0241C" d="M365.328,125.036c-0.721-6.528-6.578-16.28-11.837-21.362
			c-3.167-3.07-8.328-6.72-13.858-5.492c-5.544,1.242-9.665,5.515-14.72,8.954c-6.6,4.479-15.083,8.078-12.418,19.052
			c1.226,5.036,4.322,10.494,8.662,15.881c3.366,4.182,8.383,9.811,15.303,9.236c5.585-0.457,11.438-6.262,15.008-8.658
			C357.688,138.483,366.519,135.729,365.328,125.036 M348.587,122.725c-5.348,3.613-9.004,6.198-14.44,9.816
			c-2.061,1.377-5.469,4.255-7.793,4.044c-1.632-0.15-3.752-2.182-3.462-4.624c0.339-2.887,10.085-8.54,12.417-10.105
			c5.496-3.68,9.027-6.486,13.85-8.658c0.191-0.082,0.237-0.229,0.581-0.288c2.738-0.456,4.898,1.276,4.912,3.754
			C354.663,119.396,350.548,121.398,348.587,122.725"/>
		<path fill-rule="evenodd" clip-rule="evenodd" fill="#B0241C" d="M85.713,126.682c2.212-0.201,2.916-3.039,4.624-4.333
			c6.826-5.169,15.55,5.18,21.651,6.926c-2.145,5.36-5.369,9.651-7.795,14.729c-2.672-0.769-5.583-3.033-8.951-4.914
			c-5.582-3.108-11.801-6.879-14.146,0.87c5.735,4.269,12.701,7.313,19.054,10.969c-2.64,5.644-6.03,10.524-8.667,16.169
			c-13.811-7.551-27.464-15.263-41.28-22.806c2.225-4.538,5.546-10.33,8.66-15.881c3-5.348,5.814-11.354,9.528-14.727
			c1.363-1.237,4.203-3.039,6.643-3.174c4.55-0.243,11.431,3.661,12.125,7.215C87.925,121.66,84.071,124.222,85.713,126.682
			 M78.208,131.586c-0.232-2.028-4.528-5.221-7.215-5.486c-3.632-0.352-4.765,2.343-6.064,5.197
			c3.494,2.182,7.041,4.318,10.969,6.061C76.744,135.396,78.433,133.583,78.208,131.586"/>
	</g>
	<g>
		<path fill="#F7A800" d="M135.319,122.939c0.733,0.016,1.508,0.047,2.298,0.088c0.005-0.004,0.009-0.008,0.014-0.013
			c8.372,0.467,18.747,2.092,24.542,5.773c0.771,0.49,1.757,1.291,2.714,2.175c1.653,1.524,3.173,3.371,3.061,4.754
			c-0.089,1.111-1.279,1.99-2.193,3.207c-0.51,0.68-0.933,1.464-1.032,2.451c-0.039,0.391-0.028,0.812,0.049,1.271
			c0.371,2.24,3.229,4.146,5.772,4.043c3.043-0.123,9.432-7.666,10.686-1.732c0.383,1.803-1.038,3.789-2.529,5.477
			c-0.185,0.209-0.37,0.412-0.554,0.611c-0.705,0.764-1.377,1.449-1.829,1.999c-2.248,2.731-4.53,4.534-5.654,7.323
			c-0.029,0.074-0.064,0.143-0.093,0.217c-0.032,0.087-0.056,0.182-0.085,0.271c-0.578,1.702-0.741,3.775-0.231,6.62
			c0.066,0.273,0.206,0.475,0.372,0.648c0.729,0.763,2.209,0.771,2.807,1.662c0.012,2.479-0.642,4.455,0.29,6.354
			c0.589-0.136,1.123-0.447,1.643-0.803c0.678-0.465,1.332-1.002,2.038-1.371c0.473-0.248,0.968-0.423,1.515-0.429
			c0.696-0.005,1.307,0.151,1.875,0.403c2.458,1.087,4.094,3.949,8.23,3.061c0.77-0.164,1.446-0.81,2.105-1.554
			c1.064-1.202,2.084-2.659,3.38-2.771c6.332-0.559,8.651,13.717,8.952,20.205c0.342,7.485,0.472,14.48,4.615,18.48
			c0.568-0.146,0.852-0.573,0.995-1.142c0.055-0.219,0.089-0.458,0.108-0.712c0.07-0.871-0.017-1.898,0.057-2.768
			c0,0.001,0.001,0.002,0.001,0.002v-0.003c0.132,0.519,0.609,0.933,1.214,1.312c0.666,0.419,1.488,0.796,2.189,1.224
			c0.804,0.488,1.444,1.041,1.5,1.796c0,0,0,0.001,0,0.002l0,0c0.133,1.772-2.118,2.048-3.555,2.652
			c-0.176,0.074-0.342,0.152-0.487,0.239c-1.987,1.196-3.234,3.515-4.854,5.821c-0.54,0.769-1.121,1.536-1.784,2.261
			c-0.238,0.259-0.483,0.486-0.727,0.724c-2.916,2.842-6.159,4.224-8.226,6.202c4.897,2.758,10.561,2.683,16.452,2.018
			c7.403-0.837,15.17-2.606,22.238-0.864v0.001l0,0c-0.029,0.241-0.073,0.474-0.117,0.706c-0.015,0.072-0.021,0.149-0.037,0.221
			c-0.008,0.037-0.021,0.07-0.028,0.107c-2.081,9.182-16.285,11.432-16.836,21.817c-0.004,0.084-0.016,0.163-0.019,0.249
			c-0.232,7.564,9.066,12.288,17.318,8.948c-1.198,0.654-2.438,1.418-3.72,2.216c-0.698,0.435-1.413,0.879-2.138,1.321
			c-0.244,0.149-0.487,0.297-0.734,0.445c-4.861,2.915-10.317,5.562-16.503,4.393c-1.118-0.214-2.121-0.88-3.102-1.486
			c-0.887-0.548-1.754-1.048-2.671-1.114c-3.14-0.224-7.155,2.294-9.616,5.274c-1.231,1.493-2.081,3.1-2.221,4.542
			c-0.015,0.152-0.015,0.303-0.021,0.453c-0.042,1.051,0.117,2.053,0.43,2.992c0.696,2.098,2.131,3.885,3.701,5.188
			c0.547,0.454,1.11,0.851,1.663,1.181c1.593,0.956,3.422,1.558,5.013,2.394c2.176,1.142,3.901,2.724,3.942,6.27
			c0.186-0.089,0.375-0.174,0.564-0.259c2.897-1.312,6.098-2.315,8.098-4.521c0.797-0.88,1.408-1.944,1.725-3.304
			c0.664-0.049,1.165,0.191,1.558,0.633c1.334,1.493,1.414,5.305,2.364,8.004c0.56,1.587,1.42,2.789,3.014,2.909
			c0.015-0.096,0.02-0.196,0.016-0.302c-0.003-0.092-0.015-0.189-0.029-0.288c-0.003-0.016-0.002-0.029-0.005-0.045
			c-0.012-0.073-0.03-0.151-0.048-0.229c-0.01-0.044-0.016-0.086-0.027-0.132c-0.023-0.096-0.053-0.196-0.082-0.297
			c-0.009-0.03-0.016-0.058-0.024-0.088c-0.008-0.024-0.018-0.052-0.025-0.077c-0.491-1.578-1.496-3.656-0.644-5.468
			c8.714-0.438,4.498,12.05,10.105,14.722c0.073-0.405,0.123-0.803,0.152-1.193c0.437-5.823-3.687-10.105-3.33-15.457
			c0.002-0.032,0-0.062,0.002-0.094c0.866,0.229,1.264,0.929,1.675,1.613c0.492,0.817,1.007,1.613,2.368,1.562
			c-0.334-3.175,0.74-4.942,2.039-6.485c1.34-1.594,2.921-2.948,3.447-5.354c2.271,1.957,3.778,4.692,5.193,7.508
			c-1.049,1.736-3.58,2.003-4.907,3.47c3.897,9.428,8.746,19.397,7.54,33.035c47.76-15.177,82.405-60.319,82.405-113.64
			c0-24.521-7.328-47.31-19.884-66.252c-0.703,1.261-1.37,2.647-2.124,3.961c-0.774,1.397-1.655,2.7-2.975,3.729
			c-1.312,1.023-3.774,2.285-6.234,3.361c-1.711,0.75-3.421,1.412-4.741,1.838c-5.792,1.877-10.143,4.121-17.318,4.328l0,0
			c-0.001,0-0.001,0-0.002,0c-1.813-1.068-3.568-2.199-4.333-4.328c0.077-0.06,0.164-0.092,0.259-0.101
			c0.658-0.07,1.737,0.929,3.212,0.967c0.849,0.019,1.669-0.086,2.459-0.3c7.634-2.066,12.436-14.268,13.131-22.218
			c0.119-1.405,0.149-3.109,0.051-4.772c-0.091-1.515-0.289-2.996-0.634-4.184c-0.637-2.203-2.059-4.146-3.943-5.705
			c-0.553-0.457-1.134-0.889-1.76-1.274c-3.552-2.185-8.172-3.158-12.484-2.257c-2.434,0.51-4.299,1.972-6.384,3.127
			c-1.286,0.712-2.655,1.308-4.294,1.489c-0.193-0.644-0.272-1.229-0.264-1.757c0.009-0.529,0.104-1.001,0.264-1.417
			c0.827-2.198,10.562-4.98,14.978-5.425c0.457-0.045,0.856-0.066,1.184-0.059c1.39,0.028,2.859,0.693,4.282,1.607
			c-19.594-14.738-43.87-23.462-70.161-23.462C183.215,93.366,156.034,104.562,135.319,122.939z M240.702,137.736
			c2.503,1.064,4.147,2.973,5.484,5.201c1.577,0.108,3.057,0.359,4.468,0.707c7.66,1.885,13.013,6.972,17.462,12.082
			c0.396,0.453,0.785,0.907,1.167,1.358h-0.001l0.001,0.001c-0.209,0.006-0.424,0.007-0.642,0.004
			c-1.526-0.016-3.203-0.174-3.972,0.57c-0.629,1.928,0.984,3.088,1.731,4.62c3.334,6.853,5.685,14.831,8.656,22.231
			c0-0.001-0.001-0.002-0.001-0.002s0.001,0.002,0.001,0.004c-1.351-1.511-2.676-3.046-3.993-4.588
			c-9.04-10.574-17.327-21.895-25.045-33.791c-1.799-2.772-3.579-5.564-5.317-8.396h0.001
			C240.703,137.738,240.702,137.737,240.702,137.736z M227.417,187.109c-1.37-0.404-2.471-1.686-3.792-2.826
			c-0.521-0.449-1.072-0.877-1.692-1.219c-1.991-1.093-4.057-1.482-6.211-1.762c-1.355-0.174-2.747-0.307-4.179-0.539
			c4.08-6.242,1.492-11.9-1.052-18.064c-1.773-4.295-3.525-8.834-2.988-13.988c1.211-2.254,3.354-3.577,4.614-5.773
			c-0.295-0.109-0.576-0.234-0.844-0.373c-8.303-4.281-3.668-21.502-8.973-28.786c0,0,0-0.001,0.001-0.001
			c-0.001,0-0.001-0.001-0.001-0.001c0.665-1.017,1.248-2.153,1.827-3.298c0.263-0.518,0.525-1.033,0.793-1.543
			c0.891-1.691,1.854-3.284,3.161-4.387c0.594-0.502,1.257-0.902,2.017-1.167c6.835-2.374,13.96,3.753,20.502,4.044
			c-6.099,4.873-9.407,11.213-12.418,19.344c-1.277,3.443-2.01,7.368-4.714,9.331c-0.059,0.042-0.112,0.09-0.172,0.13
			c-0.09,0.061-0.188,0.111-0.283,0.168c-0.104,0.062-0.205,0.129-0.315,0.187c0.494,3.11,1.318,6.194,2.299,9.278
			c0.466,1.467,0.967,2.934,1.486,4.402c0.84,2.377,1.726,4.761,2.581,7.162c1.179,3.305,2.3,6.645,3.164,10.047
			c0.421,1.668,0.551,3.422,0.668,5.14c0.157,2.312,0.288,4.554,1.061,6.407c1.468,3.531,5.901,4.168,9.41,5.233
			c0.549,0.167,1.076,0.343,1.564,0.542C233.974,187.675,229.865,187.83,227.417,187.109z M255.715,186.535
			c-4.864,5.238-14.896,5.311-18.479,11.838c0-0.002,0-0.004,0-0.006c-0.001,0.002-0.002,0.002-0.003,0.004
			c-0.783-11.566,2.397-19.17,12.13-20.213v0.002c0.001-0.001,0.001-0.001,0.002-0.001c0.104,0.706-0.261,1.212-0.808,1.658
			c-0.824,0.675-2.061,1.214-2.766,2.076c-0.041,0.051-0.087,0.099-0.124,0.151c-0.004,0.006-0.006,0.011-0.01,0.016
			c-0.151,0.218-0.269,0.455-0.337,0.721C248.976,183.836,252.342,185.189,255.715,186.535L255.715,186.535L255.715,186.535z
			 M271.308,235.615c-0.189,0.109-0.407,0.19-0.607,0.289c-1.855,0.922-4.12,1.437-6.61,1.733v-0.001l0,0
			c1.48-4.968,2.747-10.143,4.043-15.307c0.364,0.387,0.689,0.793,0.98,1.217c0.992,1.449,1.574,3.124,1.894,5.041
			C271.351,230.641,271.394,232.973,271.308,235.615z M271.595,211.94c1.363-2.452,5.471-0.128,6.644,2.022
			c0.731,1.342,0.702,2.803,1.224,4.142c0.181,0.465,0.427,0.916,0.798,1.341c1.989,2.293,4.608,2.384,5.196,4.905l0,0v0.001
			c-0.282,0.133-0.6,0.245-0.935,0.347c-2.892,0.88-7.559,0.653-10.326-0.056c-0.504-1.253-1.008-2.506-1.444-3.827
			C271.92,218.302,271.351,215.527,271.595,211.94z M292.097,274.591c-3.411,0.687-8.592,1.388-12.189,0.341
			c-2.045-0.594-3.584-1.748-3.98-3.804c0,0,0,0,0.001,0c-0.001-0.001-0.001-0.001-0.001-0.002c0.385,0.192,0.809,0.315,1.24,0.398
			c1.712,0.327,3.606-0.188,4.243-1.555c-0.982-1.939-2.774-3.077-4.603-4.176c-0.998-0.599-2.007-1.186-2.902-1.885
			c0,0,0.001,0,0.002-0.001c-0.001,0-0.001-0.001-0.001-0.001c1.192-0.393,2.267-0.339,3.269-0.058
			c1.721,0.48,3.228,1.628,4.758,2.34c1.631,0.758,3.286,1.021,5.252-0.551C290.146,267.299,292.922,269.147,292.097,274.591z"/>
		<path fill="#F7A800" d="M288.628,121.285c0.626,0.525,1.265,1.074,1.907,1.634c-0.989-0.878-1.992-1.742-3.01-2.587
			c0.192,0.168,0.38,0.332,0.562,0.489C288.272,120.982,288.454,121.139,288.628,121.285z"/>
		<path fill="#FFFFFF" d="M202.301,113.775c0,0,0,0.002,0.001,0.002c0.664-1.017,1.247-2.154,1.826-3.299
			C203.549,111.623,202.966,112.76,202.301,113.775z"/>
		<path fill="#FFFFFF" d="M214.997,145.863c0.466,1.467,0.966,2.934,1.486,4.402C215.964,148.797,215.463,147.33,214.997,145.863z"
			/>
		<path fill="#FFFFFF" d="M213.297,136.23c-0.09,0.061-0.188,0.111-0.283,0.168C213.108,136.342,213.207,136.291,213.297,136.23z"/>
		<path fill="#FFFFFF" d="M211.273,142.564c0.268,0.139,0.549,0.264,0.844,0.373l0,0
			C211.822,142.828,211.541,142.703,211.273,142.564z"/>
		<path fill="#FFFFFF" d="M234.93,184.797c-0.959,2.877-5.064,3.032-7.511,2.311c-1.371-0.403-2.473-1.685-3.794-2.824
			c1.321,1.141,2.422,2.422,3.792,2.826c2.448,0.721,6.557,0.565,7.515-2.312c-0.488-0.199-1.016-0.375-1.564-0.542
			C233.915,184.422,234.442,184.598,234.93,184.797z"/>
		<path fill="#FFFFFF" d="M210.491,162.699c2.544,6.164,5.132,11.822,1.052,18.064c1.432,0.232,2.823,0.365,4.179,0.539
			c-1.355-0.176-2.746-0.308-4.177-0.541C215.623,174.521,213.036,168.863,210.491,162.699z"/>
		<path fill="#FFFFFF" d="M208.082,104.549c-1.307,1.103-2.271,2.695-3.161,4.387C205.812,107.244,206.775,105.652,208.082,104.549z
			"/>
		<path fill="#FFFFFF" d="M222.896,172.614c-0.117-1.718-0.247-3.472-0.668-5.14c-0.864-3.402-1.985-6.742-3.164-10.047
			c1.179,3.305,2.3,6.644,3.161,10.047C222.647,169.143,222.779,170.897,222.896,172.614z"/>
		<path fill="#FFFFFF" d="M218.183,126.769c-1.28,3.442-2.011,7.369-4.714,9.332C216.173,134.138,216.905,130.213,218.183,126.769
			c3.011-8.13,6.319-14.47,12.418-19.343C224.502,112.297,221.193,118.637,218.183,126.769z"/>
		<path fill="#FFFFFF" d="M287.57,122.793c1.885,1.559,3.307,3.502,3.943,5.705c0.345,1.188,0.543,2.669,0.634,4.184
			c-0.09-1.515-0.286-2.996-0.631-4.184C290.878,126.295,289.455,124.352,287.57,122.793z"/>
		<path fill="#FFFFFF" d="M277.371,163.434L277.371,163.434c7.176-0.207,11.526-2.451,17.318-4.328
			c1.32-0.426,3.03-1.088,4.741-1.838c-1.711,0.75-3.421,1.41-4.741,1.838C288.897,160.982,284.548,163.225,277.371,163.434z"/>
		<path fill="#FFFFFF" d="M288.087,120.821c0.186,0.161,0.366,0.317,0.539,0.462c7.943,6.662,17.005,16.934,22.136,24.924
			c-0.785,1.314-1.408,2.684-2.122,3.971c0.754-1.313,1.421-2.7,2.124-3.961c0.128-0.23,0.256-0.465,0.388-0.685
			c-4.727-7.36-13.116-16.077-20.616-22.613c-0.643-0.56-1.281-1.108-1.907-1.634C288.454,121.139,288.272,120.982,288.087,120.821z
			"/>
		<path fill="#FFFFFF" d="M273.326,119.262c4.312-0.901,8.933,0.072,12.484,2.257C282.259,119.334,277.64,118.359,273.326,119.262z"
			/>
		<path fill="#FFFFFF" d="M266.942,122.389c-1.286,0.711-2.655,1.308-4.294,1.489C264.287,123.696,265.656,123.101,266.942,122.389z
			"/>
		<path fill="#FFFFFF" d="M262.648,123.878c-0.192-0.644-0.271-1.229-0.264-1.757C262.376,122.649,262.455,123.234,262.648,123.878z
			"/>
		<path fill="#FFFFFF" d="M273.295,159.005c0.66-0.067,1.736,0.929,3.212,0.967C275.032,159.934,273.953,158.935,273.295,159.005z"
			/>
		<path fill="#FFFFFF" d="M111.539,275.21c5.597,9.036,12.543,17.016,20.606,24.211c0.086,0.077,0.174,0.152,0.261,0.229
			c-0.086-0.077-0.173-0.153-0.259-0.231C124.208,292.17,117.234,284.198,111.539,275.21z"/>
		<path fill="#FFFFFF" d="M185.444,255.786c-2.506-0.767-5.604-0.825-8.548-0.538v0.001
			C179.84,254.962,182.938,255.021,185.444,255.786z"/>
		<path fill="#FFFFFF" d="M174.873,228.685C174.873,228.685,174.872,228.685,174.873,228.685c0.271,0.462,0.42,0.981,0.474,1.527
			C175.293,229.666,175.145,229.146,174.873,228.685z"/>
		<path fill="#FFFFFF" d="M205.819,263.786c1.818-1.191,3.566-2.235,5.147-2.473c-0.115-0.458-0.23-0.914-0.347-1.369
			c0.116,0.454,0.231,0.91,0.346,1.367C209.386,261.55,207.638,262.594,205.819,263.786z"/>
		<path fill="#FFFFFF" d="M184.69,260.153c0.451-0.207,0.954-0.312,1.476-0.345c-0.522,0.032-1.026,0.137-1.478,0.345
			c3.216,0.619,5.159,3.374,7.36,5.436C189.848,263.526,187.904,260.772,184.69,260.153z"/>
		<path fill="#FFFFFF" d="M173.295,229.743c-0.815,0.326-1.688,0.596-2.174,1.25l0,0C171.609,230.341,172.48,230.07,173.295,229.743
			z"/>
		<path fill="#FFFFFF" d="M172.562,236.189c0.001,0,0.002,0.001,0.004,0.001c0.856-0.501,1.719-1.64,2.257-2.955
			C174.284,234.551,173.421,235.689,172.562,236.189z"/>
		<path fill="#FFFFFF" d="M224.76,298.844c-0.01-0.044-0.016-0.086-0.027-0.132C224.744,298.758,224.75,298.8,224.76,298.844z"/>
		<path fill="#FFFFFF" d="M233.198,230.127L233.198,230.127c-7.068-1.743-14.835,0.026-22.238,0.863
			C218.363,230.153,226.13,228.385,233.198,230.127z"/>
		<path fill="#FFFFFF" d="M193.185,281.212c-0.312-0.939-0.472-1.941-0.43-2.992C192.712,279.271,192.872,280.272,193.185,281.212z"
			/>
		<path fill="#FFFFFF" d="M216.18,252.979c0.551-10.386,14.755-12.636,16.836-21.817
			C230.934,240.342,216.729,242.594,216.18,252.979z"/>
		<path fill="#FFFFFF" d="M233.479,262.176c-8.252,3.34-17.551-1.384-17.318-8.948l0,0
			C215.929,260.792,225.228,265.519,233.479,262.176z"/>
		<path fill="#FFFFFF" d="M203.562,289.975c-1.591-0.836-3.42-1.438-5.013-2.394c-0.553-0.33-1.116-0.727-1.663-1.181
			c0.548,0.455,1.111,0.852,1.664,1.183C200.143,288.538,201.972,289.14,203.562,289.975z"/>
		<path fill="#FFFFFF" d="M194.996,273.225c2.461-2.98,6.477-5.498,9.616-5.274c0.917,0.066,1.784,0.566,2.671,1.114
			c-0.886-0.549-1.754-1.05-2.67-1.117C201.473,267.726,197.457,270.243,194.996,273.225z"/>
		<path fill="#FFFFFF" d="M224.842,299.405c0.004,0.105-0.001,0.206-0.016,0.302C224.841,299.612,224.846,299.511,224.842,299.405z"
			/>
		<path fill="#FFFFFF" d="M208.068,295.985c-0.189,0.085-0.379,0.17-0.564,0.259l0,0
			C207.689,296.155,207.879,296.07,208.068,295.985z"/>
		<path fill="#FFFFFF" d="M224.826,299.707c-1.594-0.12-2.454-1.322-3.014-2.909C222.372,298.385,223.232,299.588,224.826,299.707z"
			/>
		<path fill="#FFFFFF" d="M219.448,288.794c-0.393-0.441-0.894-0.682-1.558-0.633c-0.316,1.359-0.928,2.424-1.725,3.304
			c0.797-0.879,1.409-1.942,1.727-3.301C218.556,288.115,219.056,288.354,219.448,288.794z"/>
		<path fill="#FFFFFF" d="M202.733,222.771c0.243-0.237,0.488-0.465,0.727-0.724c0.663-0.725,1.244-1.492,1.784-2.261
			c-0.54,0.769-1.121,1.536-1.784,2.26C203.222,222.305,202.977,222.533,202.733,222.771z"/>
		<path fill="#FFFFFF" d="M170.252,167.475c0.067,0.273,0.207,0.475,0.373,0.648C170.459,167.949,170.319,167.748,170.252,167.475
			c-0.509-2.845-0.346-4.918,0.232-6.62C169.906,162.557,169.743,164.63,170.252,167.475z"/>
		<path fill="#FFFFFF" d="M188.502,201.378c0.016-1.212-0.337-2.265-0.314-3.267C188.165,199.113,188.518,200.166,188.502,201.378z"
			/>
		<path fill="#FFFFFF" d="M164.887,130.963"/>
		<line fill="#FFFFFF" x1="137.631" y1="123.015" x2="137.617" y2="123.027"/>
		<path fill="#FFFFFF" d="M188.443,196.923c-1.03-0.823-2.62-1.599-4.398-1.916C185.822,195.325,187.413,196.102,188.443,196.923
			C188.443,196.924,188.443,196.924,188.443,196.923z"/>
		<path fill="#FFFFFF" d="M210.781,331.47c1.007,0.044,1.988,0.07,2.954,0.084c13.046,0.196,22.584-2.168,34.188-4.925
			C235.458,329.583,225.391,331.801,210.781,331.47z"/>
		<path fill="#FFFFFF" d="M209.07,210.22c-0.144,0.568-0.427,0.996-0.995,1.142l0.001,0.001
			C208.644,211.217,208.927,210.789,209.07,210.22z"/>
		<path fill="#FFFFFF" d="M189.023,177.003c0.77-0.166,1.446-0.812,2.104-1.557c-0.659,0.744-1.336,1.39-2.105,1.554
			c-4.137,0.889-5.772-1.974-8.23-3.061C183.25,175.028,184.886,177.891,189.023,177.003z"/>
		<path fill="#FFFFFF" d="M209.236,206.742c0,0-0.001-0.001-0.001-0.002c-0.073,0.869,0.014,1.896-0.057,2.768
			C209.249,208.637,209.163,207.61,209.236,206.742z"/>
		<path fill="#FFFFFF" d="M210.585,213.726c1.437-0.604,3.688-0.88,3.555-2.652l0,0C214.271,212.845,212.019,213.12,210.585,213.726
			z"/>
		<path fill="#FFFFFF" d="M223.957,292.784c8.714-0.438,4.496,12.048,10.105,14.72c-5.607-2.672-1.392-15.16-10.105-14.722
			c-0.853,1.812,0.152,3.89,0.644,5.468C224.109,296.673,223.106,294.594,223.957,292.784z"/>
		<path fill="#FFFFFF" d="M236.969,287.45c-1.299,1.543-2.373,3.311-2.039,6.485c0.001,0,0.001,0,0.002,0
			C234.597,290.763,235.67,288.994,236.969,287.45z"/>
		<path fill="#FFFFFF" d="M233.081,230.833c-0.015,0.072-0.021,0.149-0.037,0.221C233.06,230.982,233.066,230.905,233.081,230.833z"
			/>
		<path fill="#FFFFFF" d="M178.699,150.434c-0.185,0.209-0.37,0.412-0.554,0.611C178.329,150.846,178.515,150.643,178.699,150.434z"
			/>
		<path fill="#FFFFFF" d="M165.754,138.924c-0.51,0.68-0.934,1.464-1.032,2.451C164.821,140.388,165.244,139.604,165.754,138.924z"
			/>
		<path fill="#FFFFFF" d="M175.364,175.336c0.678-0.465,1.333-1.002,2.038-1.371C176.696,174.334,176.042,174.871,175.364,175.336z"
			/>
		<path fill="#FFFFFF" d="M210.45,208.052c0.666,0.419,1.488,0.796,2.189,1.224C211.938,208.848,211.116,208.471,210.45,208.052z"/>
		<path fill="#FFFFFF" d="M170.662,160.367c-0.029,0.074-0.064,0.143-0.093,0.217C170.598,160.51,170.633,160.441,170.662,160.367z"
			/>
		<path fill="#FFFFFF" d="M177.764,245.433c0.496,0.311,1.004,0.609,1.513,0.906C178.768,246.042,178.261,245.743,177.764,245.433
			L177.764,245.433z"/>
		<path fill="#FFFFFF" d="M180.262,252.402c0.036-0.009,0.073-0.015,0.109-0.023C180.335,252.388,180.298,252.394,180.262,252.402z"
			/>
		<path fill="#FFFFFF" d="M177.675,253.697c0.619-0.659,1.521-1.034,2.548-1.284C179.196,252.663,178.294,253.038,177.675,253.697z"
			/>
		<path fill="#FFFFFF" d="M180.076,195.193c0.684,0.448,1.329,0.935,1.958,1.438C181.406,196.129,180.761,195.643,180.076,195.193
			L180.076,195.193z"/>
		<path fill="#FFFFFF" d="M224.812,299.117c-0.003-0.016-0.002-0.029-0.005-0.045C224.811,299.088,224.81,299.102,224.812,299.117z"
			/>
		<path fill="#FFFFFF" d="M224.65,298.415c-0.009-0.03-0.016-0.058-0.024-0.088C224.635,298.357,224.642,298.385,224.65,298.415z"/>
		<path fill="#FFFFFF" d="M232.562,292.373c-0.411-0.685-0.809-1.384-1.675-1.613c-0.002,0.031,0,0.062-0.002,0.094
			c0.002-0.031,0-0.061,0.002-0.092C231.753,290.99,232.15,291.688,232.562,292.373z"/>
		<path fill="#FFFFFF" d="M190.464,260.733c-0.943-0.431-2.553-0.951-4.054-0.924C187.91,259.782,189.52,260.304,190.464,260.733
			L190.464,260.733z"/>
		<path fill="#FFFFFF" d="M240.702,293.073c1.327-1.467,3.858-1.733,4.907-3.47C244.561,291.34,242.029,291.604,240.702,293.073z"/>
		<path fill="#FFFFFF" d="M227.622,265.713c-0.244,0.149-0.487,0.297-0.734,0.445C227.135,266.01,227.378,265.862,227.622,265.713z"
			/>
		<path fill="#FFFFFF" d="M275.058,184.514c0-0.002-0.001-0.003-0.001-0.003c-1.351-1.511-2.675-3.044-3.992-4.585
			C272.382,181.468,273.707,183.003,275.058,184.514z"/>
		<path fill="#FFFFFF" d="M268.116,155.727c-4.449-5.11-9.802-10.197-17.462-12.082C258.313,145.53,263.666,150.617,268.116,155.727
			z"/>
		<path fill="#FFFFFF" d="M246.02,146.135c-1.799-2.771-3.577-5.563-5.316-8.396h-0.001
			C242.44,140.57,244.221,143.362,246.02,146.135z"/>
		<path fill="#FFFFFF" d="M269.283,157.086L269.283,157.086c-0.21,0.006-0.424,0.006-0.642,0.004
			C268.859,157.093,269.074,157.092,269.283,157.086z"/>
		<path fill="#FFFFFF" d="M245.667,182.045c-0.004,0.006-0.006,0.011-0.01,0.016C245.661,182.056,245.663,182.051,245.667,182.045z"
			/>
		<path fill="#FFFFFF" d="M245.32,182.781c-0.001,0.001-0.001,0.002-0.001,0.002c3.656,1.054,7.021,2.407,10.395,3.752l0.001-0.001
			C252.342,185.189,248.976,183.836,245.32,182.781z"/>
		<path fill="#FFFFFF" d="M245.791,181.894c0.705-0.862,1.941-1.401,2.766-2.076C247.731,180.492,246.495,181.031,245.791,181.894z"
			/>
		<path fill="#FFFFFF" d="M249.362,178.16v-0.002c-9.732,1.043-12.913,8.646-12.13,20.213c0.001-0.002,0.002-0.002,0.003-0.004
			C236.45,186.805,239.631,179.203,249.362,178.16z"/>
		<path fill="#FFFFFF" d="M274.198,224.643c-0.505-1.253-1.011-2.506-1.447-3.827c0.437,1.321,0.94,2.574,1.444,3.827
			c2.768,0.709,7.435,0.936,10.326,0.056C281.628,225.577,276.964,225.352,274.198,224.643z"/>
		<path fill="#FFFFFF" d="M285.456,224.351L285.456,224.351c-0.588-2.521-3.207-2.612-5.196-4.905
			c-0.371-0.425-0.617-0.876-0.798-1.341c0.181,0.466,0.427,0.918,0.798,1.344C282.249,221.738,284.867,221.831,285.456,224.351z"/>
		<path fill="#FFFFFF" d="M264.09,237.638c2.49-0.297,4.755-0.812,6.61-1.733C268.843,236.825,266.577,237.341,264.09,237.638
			L264.09,237.638z"/>
		<path fill="#FFFFFF" d="M269.113,223.547c0.992,1.449,1.573,3.124,1.894,5.041C270.688,226.671,270.105,224.996,269.113,223.547z"
			/>
		<path fill="#FFFFFF" d="M273.905,263.909c0.896,0.699,1.904,1.286,2.902,1.885c-0.998-0.6-2.006-1.187-2.9-1.886
			C273.906,263.909,273.906,263.909,273.905,263.909z"/>
		<path fill="#FFFFFF" d="M275.928,271.128C275.927,271.128,275.927,271.128,275.928,271.128c0.396,2.056,1.935,3.21,3.979,3.804
			C277.863,274.337,276.325,273.184,275.928,271.128z"/>
		<path fill="#FFFFFF" d="M287.185,265.639c2.961,1.66,5.734,3.511,4.912,8.952C292.922,269.147,290.146,267.299,287.185,265.639z"
			/>
		<path fill="#FFFFFF" d="M281.41,269.97c-0.637,1.367-2.531,1.882-4.243,1.555C278.879,271.854,280.773,271.339,281.41,269.97z"/>
		<path fill="#FFFFFF" d="M277.175,263.85c1.72,0.48,3.228,1.628,4.758,2.34C280.402,265.478,278.896,264.33,277.175,263.85z"/>
		<path fill="#02386D" d="M234.93,184.797c-0.487-0.199-1.015-0.375-1.562-0.542c-3.509-1.065-7.942-1.702-9.41-5.233
			c-0.772-1.854-0.903-4.096-1.061-6.407c-0.117-1.717-0.249-3.472-0.671-5.14c-0.861-3.403-1.982-6.742-3.161-10.047
			c-0.855-2.401-1.741-4.785-2.581-7.162c-0.521-1.469-1.021-2.936-1.486-4.402c-0.98-3.084-1.805-6.168-2.299-9.278
			c0.11-0.058,0.211-0.124,0.315-0.187c0.095-0.057,0.193-0.107,0.283-0.168c0.06-0.04,0.113-0.088,0.172-0.13
			c2.703-1.963,3.434-5.89,4.714-9.332c3.011-8.132,6.319-14.472,12.418-19.343c-6.542-0.291-13.667-6.418-20.502-4.044
			c-0.76,0.265-1.423,0.665-2.017,1.167c-1.307,1.104-2.271,2.695-3.161,4.387c-0.268,0.51-0.53,1.025-0.793,1.543
			c-0.579,1.145-1.162,2.282-1.826,3.299c-0.001,0-0.001,0-0.001,0c5.305,7.285,0.67,24.506,8.973,28.787
			c0.268,0.139,0.549,0.264,0.844,0.373l0,0c-1.26,2.196-3.403,3.52-4.614,5.773c-0.537,5.154,1.215,9.693,2.988,13.988
			c2.545,6.164,5.132,11.822,1.054,18.062c1.431,0.233,2.821,0.365,4.177,0.541c2.154,0.279,4.22,0.669,6.211,1.762
			c0.62,0.342,1.172,0.77,1.692,1.219c1.321,1.14,2.423,2.421,3.794,2.824C229.865,187.829,233.971,187.674,234.93,184.797z"/>
		<path fill="#02386D" d="M277.626,115.279c-4.415,0.444-14.15,3.227-14.978,5.425c-0.159,0.416-0.255,0.888-0.264,1.417
			c-0.008,0.528,0.071,1.113,0.264,1.757c1.639-0.182,3.008-0.778,4.294-1.489c2.085-1.155,3.95-2.617,6.384-3.127
			c4.313-0.902,8.933,0.072,12.484,2.257c0.626,0.386,1.207,0.817,1.76,1.274c1.885,1.559,3.308,3.502,3.946,5.705
			c0.345,1.188,0.541,2.669,0.631,4.184c0.099,1.663,0.068,3.367-0.051,4.772c-0.695,7.95-5.497,20.151-13.131,22.218
			c-0.79,0.214-1.61,0.318-2.459,0.3c-1.476-0.038-2.552-1.034-3.212-0.967c-0.095,0.009-0.182,0.041-0.259,0.101
			c0.765,2.129,2.52,3.26,4.333,4.328c0.001,0,0.001,0,0.002,0c7.177-0.209,11.526-2.451,17.318-4.328
			c1.32-0.428,3.03-1.088,4.741-1.838c2.46-1.076,4.923-2.338,6.234-3.361c1.319-1.028,2.2-2.331,2.975-3.729
			c0.714-1.287,1.337-2.656,2.122-3.971c-5.131-7.99-14.192-18.262-22.136-24.924c-0.173-0.145-0.354-0.301-0.539-0.462
			c-0.182-0.157-0.369-0.321-0.562-0.489c-1.298-1.135-2.835-2.477-4.434-3.504c-1.423-0.914-2.893-1.579-4.282-1.607
			C278.482,115.213,278.083,115.234,277.626,115.279z"/>
		<path fill="#02386D" d="M240.702,293.073c1.327-1.469,3.858-1.733,4.907-3.47c-1.415-2.815-2.923-5.551-5.193-7.508
			c-0.526,2.406-2.107,3.761-3.447,5.354c-1.299,1.544-2.372,3.312-2.037,6.485c-0.001,0-0.001,0-0.002,0
			c-1.361,0.051-1.876-0.745-2.368-1.562c-0.411-0.685-0.809-1.383-1.675-1.611c-0.002,0.031,0,0.061-0.002,0.092
			c-0.356,5.352,3.767,9.634,3.33,15.457c-0.029,0.391-0.079,0.788-0.152,1.193c-5.609-2.672-1.392-15.158-10.105-14.72
			c-0.851,1.81,0.152,3.889,0.644,5.466c0.008,0.025,0.018,0.053,0.025,0.077c0.009,0.03,0.016,0.058,0.024,0.088
			c0.029,0.101,0.059,0.201,0.082,0.297c0.012,0.046,0.018,0.088,0.027,0.132c0.018,0.077,0.036,0.155,0.048,0.229
			c0.003,0.016,0.002,0.029,0.005,0.045c0.015,0.099,0.026,0.196,0.029,0.288c0.004,0.105-0.001,0.207-0.016,0.302
			c-1.594-0.119-2.454-1.322-3.014-2.909c-0.95-2.699-1.03-6.511-2.364-8.004c-0.393-0.439-0.893-0.679-1.556-0.63
			c-0.317,1.358-0.93,2.422-1.727,3.301c-2,2.205-5.2,3.209-8.098,4.521c-0.189,0.085-0.379,0.17-0.564,0.259l0,0
			c-0.041-3.546-1.767-5.128-3.942-6.27c-1.59-0.835-3.419-1.437-5.012-2.392c-0.553-0.331-1.116-0.728-1.664-1.183
			c-1.57-1.304-3.005-3.091-3.701-5.188c-0.312-0.939-0.473-1.941-0.43-2.992c0.006-0.15,0.006-0.301,0.021-0.453
			c0.14-1.442,0.989-3.049,2.221-4.542c2.461-2.981,6.477-5.499,9.617-5.277c0.916,0.067,1.784,0.568,2.67,1.117
			c0.98,0.606,1.983,1.272,3.102,1.486c6.186,1.17,11.642-1.478,16.503-4.393c0.247-0.148,0.49-0.296,0.734-0.445
			c0.725-0.442,1.439-0.887,2.138-1.321c1.282-0.798,2.521-1.562,3.72-2.216c-8.252,3.343-17.551-1.384-17.318-8.948l0,0
			c0.003-0.086,0.015-0.165,0.019-0.249c0.549-10.385,14.754-12.637,16.836-21.817c0.008-0.037,0.021-0.07,0.028-0.107
			c0.016-0.071,0.022-0.148,0.037-0.221c0.044-0.232,0.088-0.465,0.117-0.706l0,0c-7.068-1.742-14.835,0.026-22.238,0.863
			c-5.892,0.665-11.555,0.74-16.452-2.018c2.066-1.979,5.31-3.36,8.226-6.202c0.243-0.237,0.488-0.466,0.727-0.725
			c0.663-0.724,1.244-1.491,1.784-2.26c1.619-2.307,2.866-4.625,4.854-5.821c0.146-0.087,0.312-0.165,0.487-0.239
			c1.434-0.605,3.686-0.881,3.555-2.652c0-0.001,0-0.001,0-0.001c-0.056-0.756-0.696-1.309-1.5-1.797
			c-0.701-0.428-1.523-0.805-2.189-1.224c-0.604-0.38-1.082-0.794-1.214-1.312v0.003c-0.073,0.868,0.013,1.895-0.058,2.766
			c-0.02,0.254-0.054,0.493-0.108,0.712c-0.144,0.569-0.427,0.997-0.994,1.143l-0.001-0.001c-4.144-4-4.273-10.995-4.615-18.48
			c-0.301-6.488-2.62-20.764-8.952-20.205c-1.296,0.111-2.315,1.568-3.38,2.771c-0.658,0.744-1.335,1.391-2.104,1.557
			c-4.138,0.888-5.773-1.975-8.231-3.063c-0.568-0.252-1.179-0.408-1.875-0.403c-0.547,0.006-1.042,0.181-1.515,0.429
			c-0.705,0.369-1.36,0.906-2.038,1.371c-0.52,0.355-1.054,0.667-1.643,0.803c-0.932-1.898-0.278-3.875-0.29-6.354
			c-0.598-0.891-2.078-0.899-2.807-1.662c-0.166-0.174-0.306-0.375-0.373-0.648c-0.509-2.845-0.346-4.918,0.232-6.62
			c0.029-0.089,0.053-0.184,0.085-0.271c0.028-0.074,0.063-0.143,0.093-0.217c1.124-2.789,3.406-4.592,5.654-7.323
			c0.452-0.55,1.124-1.235,1.829-1.999c0.184-0.199,0.369-0.402,0.554-0.611c1.491-1.688,2.912-3.674,2.529-5.477
			c-1.254-5.934-7.643,1.609-10.686,1.732c-2.543,0.104-5.401-1.803-5.772-4.043c-0.077-0.459-0.088-0.881-0.049-1.271
			c0.099-0.987,0.522-1.771,1.032-2.451c0.914-1.217,2.104-2.096,2.193-3.207c0.112-1.383-1.407-3.229-3.061-4.754
			c-0.956-0.883-1.957-1.658-2.713-2.173c-5.173-3.522-16.225-5.337-24.557-5.763c-0.79-0.041-1.564-0.072-2.298-0.088
			c-4.753,4.45-9.213,9.033-13.312,13.877c-14.075,16.63-23.849,36.355-26.276,64.494c-0.169,1.96-0.305,3.958-0.401,6.002
			c-0.009,0.17-0.021,0.335-0.028,0.506c-1.234,27.982,5.009,49.67,16.237,67.392c5.695,8.988,12.669,16.96,20.608,24.208
			c0.086,0.078,0.173,0.154,0.259,0.231c10.719,9.737,23.071,17.957,37.251,23.608c0.165,0.065,0.331,0.129,0.497,0.194
			c0.626,0.246,1.253,0.489,1.887,0.726c0.516,0.192,1.034,0.38,1.556,0.565c0.252,0.091,0.504,0.182,0.757,0.271
			c11.023,3.839,23.103,6.145,36.324,6.455c0.035,0.001,0.068,0.001,0.104,0.001c14.609,0.331,24.677-1.887,37.143-4.841
			c0.096-0.022,0.189-0.045,0.286-0.067c0.015-0.153,0.019-0.3,0.032-0.453C249.448,312.471,244.6,302.501,240.702,293.073z
			 M188.443,196.923C188.443,196.923,188.443,196.924,188.443,196.923C188.443,196.924,188.443,196.924,188.443,196.923
			c-0.178,0.394-0.246,0.787-0.256,1.188c-0.022,1.002,0.33,2.055,0.314,3.267c-0.003,0.243-0.021,0.491-0.059,0.748
			c-2.257-1.714-4.208-3.729-6.409-5.494c-0.629-0.504-1.274-0.99-1.958-1.438h0.001c0-0.001-0.001-0.001-0.001-0.001
			c1.336-0.414,2.698-0.413,3.969-0.186C185.823,195.324,187.413,196.1,188.443,196.923z M176.896,255.248
			c0.131-0.646,0.402-1.15,0.778-1.551c0.619-0.659,1.521-1.034,2.548-1.284c0.014-0.004,0.025-0.008,0.039-0.011
			c0.036-0.009,0.073-0.015,0.109-0.023c1.646-0.379,3.585-0.465,5.188-0.883c-1.436-2.379-3.877-3.751-6.282-5.157
			c-0.509-0.297-1.017-0.596-1.513-0.906h0.001c-0.001-0.001-0.002-0.001-0.003-0.002c5.047-1.87,9.009,5.009,14.146,2.884
			c2.732-1.123,3.618-3.546,7.511-3.463c6.892,0.154,9.21,7.291,11.202,15.093c0.116,0.455,0.231,0.911,0.347,1.369
			c-1.581,0.237-3.329,1.281-5.147,2.473c-2.951,1.934-6.089,4.258-9.003,4.164c-1.934-0.064-3.4-1.08-4.768-2.361
			c-2.201-2.062-4.145-4.816-7.36-5.436c0.451-0.208,0.955-0.312,1.478-0.345c0.081-0.005,0.163,0.003,0.244,0.001
			c1.501-0.027,3.11,0.493,4.054,0.924c-0.524-2.648-2.464-4.166-5.02-4.947C182.938,255.021,179.84,254.962,176.896,255.248
			L176.896,255.248L176.896,255.248z M172.566,236.19c-0.002,0-0.003-0.001-0.004-0.001l0,0c-2.213-0.561-1.508-2.794-1.442-5.194
			c0-0.001,0.001-0.001,0.001-0.001v-0.001c0.486-0.654,1.358-0.924,2.174-1.25c0.628-0.252,1.223-0.536,1.576-1.06
			c0.001,0.001,0.001,0.001,0.001,0.002c0-0.001,0.001-0.001,0.001-0.001c0.271,0.461,0.42,0.981,0.474,1.527
			c0.098,0.984-0.125,2.051-0.523,3.023C174.285,234.551,173.423,235.689,172.566,236.19z"/>
		<path fill="#02386D" d="M271.064,179.926c1.317,1.541,2.642,3.074,3.992,4.584c0,0,0.001,0.001,0.001,0.002
			c-2.972-7.4-5.322-15.379-8.656-22.231c-0.747-1.532-2.36-2.692-1.731-4.62c0.769-0.744,2.445-0.586,3.972-0.57
			c0.218,0.002,0.432,0.002,0.641-0.005h0.001c-0.382-0.451-0.771-0.905-1.167-1.358c-4.45-5.109-9.803-10.196-17.462-12.082
			c-1.411-0.348-2.891-0.599-4.468-0.707c-1.337-2.229-2.981-4.137-5.484-5.201c0,0.001,0.001,0.002,0.001,0.002
			c1.739,2.833,3.518,5.625,5.316,8.396C253.737,158.031,262.024,169.352,271.064,179.926z"/>
		<path fill="#02386D" d="M245.32,182.781c0.068-0.266,0.186-0.503,0.337-0.721c0.004-0.005,0.006-0.01,0.01-0.016
			c0.037-0.053,0.083-0.101,0.124-0.151c0.704-0.862,1.94-1.401,2.766-2.076c0.547-0.446,0.912-0.952,0.808-1.658
			c-0.001,0-0.001,0-0.002,0.001c-9.731,1.043-12.912,8.645-12.127,20.207c0,0.002,0,0.004,0,0.006
			c3.584-6.527,13.615-6.6,18.479-11.838h-0.001c-3.373-1.345-6.738-2.698-10.395-3.752
			C245.319,182.783,245.319,182.782,245.32,182.781z"/>
		<path fill="#F7A800" d="M180.076,195.191c0,0,0.001,0.001,0.001,0.002c0.684,0.449,1.329,0.936,1.957,1.438
			c2.201,1.765,4.152,3.78,6.409,5.494c0.038-0.257,0.056-0.505,0.059-0.748c0.016-1.212-0.337-2.265-0.314-3.267
			c0.01-0.401,0.078-0.795,0.256-1.188c0,0,0,0-0.001,0c-1.029-0.822-2.62-1.599-4.397-1.917
			C182.774,194.779,181.412,194.778,180.076,195.191z"/>
		<path fill="#02386D" d="M274.198,224.643c2.766,0.709,7.43,0.935,10.323,0.056c0.335-0.102,0.652-0.214,0.935-0.347v-0.001
			c-0.589-2.52-3.207-2.612-5.196-4.902c-0.371-0.426-0.617-0.878-0.798-1.344c-0.521-1.339-0.492-2.8-1.224-4.142
			c-1.173-2.15-5.28-4.475-6.644-2.022c-0.244,3.587,0.325,6.361,1.156,8.875C273.188,222.137,273.693,223.39,274.198,224.643z"/>
		<path fill="#02386D" d="M269.113,223.547c-0.291-0.424-0.616-0.83-0.98-1.217c-1.296,5.164-2.562,10.339-4.043,15.307l0,0
			c2.487-0.296,4.753-0.812,6.61-1.732c0.2-0.099,0.418-0.18,0.607-0.289c0.086-2.643,0.043-4.975-0.301-7.027
			C270.687,226.671,270.105,224.996,269.113,223.547z"/>
		<path fill="#F7A800" d="M175.347,230.212c-0.054-0.546-0.203-1.065-0.475-1.526c0-0.001,0-0.001-0.001-0.002
			c-0.354,0.523-0.948,0.808-1.576,1.06c-0.814,0.327-1.686,0.598-2.174,1.25c0,0-0.001,0.001-0.001,0.002
			c-0.065,2.4-0.771,4.634,1.442,5.194l0,0c0.858-0.5,1.722-1.639,2.261-2.954C175.222,232.263,175.444,231.196,175.347,230.212z"/>
		<path fill="#F7A800" d="M185.444,255.786c2.556,0.781,4.495,2.299,5.02,4.947l0,0c-0.944-0.43-2.554-0.951-4.054-0.924
			c-0.081,0.002-0.163-0.006-0.244-0.001c-0.521,0.032-1.024,0.138-1.476,0.345c3.214,0.619,5.157,3.373,7.358,5.436
			c1.367,1.281,2.834,2.297,4.768,2.361c2.914,0.094,6.052-2.23,9.003-4.164c1.818-1.192,3.566-2.236,5.146-2.475
			c-0.114-0.457-0.229-0.913-0.346-1.367c-1.992-7.802-4.311-14.938-11.202-15.093c-3.893-0.083-4.778,2.34-7.511,3.463
			c-5.137,2.125-9.099-4.754-14.146-2.884c0.001,0.001,0.002,0.001,0.003,0.002c0.496,0.311,1.003,0.609,1.512,0.906
			c2.405,1.406,4.847,2.778,6.282,5.157c-1.603,0.418-3.541,0.504-5.188,0.883c-0.036,0.009-0.073,0.015-0.109,0.023
			c-0.014,0.003-0.025,0.007-0.039,0.011c-1.026,0.25-1.929,0.625-2.548,1.284c-0.376,0.4-0.647,0.905-0.778,1.551l0,0
			C179.84,254.961,182.938,255.02,185.444,255.786z"/>
		<path fill="#02386D" d="M287.185,265.639c-1.966,1.571-3.621,1.309-5.252,0.551c-1.53-0.712-3.038-1.859-4.758-2.34
			c-1.002-0.281-2.076-0.335-3.27,0.058c0,0,0.001,0.001,0.002,0.001c0.895,0.699,1.902,1.286,2.9,1.886
			c1.828,1.099,3.62,2.236,4.603,4.176c-0.637,1.369-2.531,1.885-4.243,1.555c-0.432-0.083-0.855-0.206-1.24-0.398
			c0,0.001,0,0.001,0.001,0.002c0.397,2.056,1.936,3.209,3.979,3.804c3.598,1.047,8.778,0.346,12.189-0.341
			C292.919,269.149,290.146,267.299,287.185,265.639z"/>
	</g>
	<path fill-rule="evenodd" clip-rule="evenodd" fill="#B0241C" d="M143.644,357.097c-1.118,2.18-4.487,3.776-6.702,1.521
		c-0.386,1.44-0.828,2.826-1.215,4.266c8.428,5.527,12.937-5.193,17.361-10.659c3.321-4.104,6.794-7.682,8.532-10.656
		c-1.346-0.49-2.548-1.114-3.968-1.53c-3.523,3.276-6.334,8.898-9.438,11.58c0.272-5.216,1.285-9.685,1.523-14.925
		c-1.663-0.368-2.689-1.367-4.572-1.521C144.961,342.774,143.881,349.519,143.644,357.097"/>
	<g>
		<path fill-rule="evenodd" clip-rule="evenodd" fill="#B0241C" d="M289.686,323.78c-0.851,0.981-2.743,0.913-3.175,2.309
			c0.559,1.359,1.423,2.43,2.023,3.754c1.512-0.313,2.369-1.288,3.75-1.731C291.571,326.511,291.159,324.617,289.686,323.78"/>
		<path fill-rule="evenodd" clip-rule="evenodd" fill="#B0241C" d="M93.693,284.302c-4.584,4.509-10.684,9.778-16.141,14.619
			c-0.984,0.872-5.183,4.366-5.183,4.878c0-0.022,2.941,3.225,3.052,3.345c3.297,3.744,6.257,6.962,9.438,9.746
			c0.832-1.426,3.406-1.996,3.354-3.348c-0.035-0.725-3.361-3.237-4.57-4.569c-1.386-1.535-4.34-4.381-4.265-5.174
			c0.146-1.597,5.726-4.124,6.091-5.182c2.392,3.195,5.147,6.028,7.918,8.835c1.066-1.271,2.752-1.925,3.353-3.653
			c-1.593-1.109-2.286-2.378-3.957-4.266c-0.762-0.854-4.014-3.489-3.958-4.264c0.046-0.761,2.036-1.775,2.432-2.133
			c0.548-0.494,2.069-2.152,2.437-2.133c0.462,0.029,3.299,3.489,4.264,4.572c1.73,1.925,3.025,3.543,3.957,4.865
			c1.641-0.793,2.896-1.976,3.964-3.348C101.562,293.088,98.332,287.99,93.693,284.302"/>
		<path fill-rule="evenodd" clip-rule="evenodd" fill="#B0241C" d="M337.969,307.452c4.095,0.073,5.445-3.562,9.44-4.266
			c3.891,2.194-1.183,7.743-4.867,5.182c-0.571,1.459-1.63,2.432-2.134,3.959c1.881,0.563,3.128,1.283,4.562,1.215
			c8.423-0.395,11.396-15.324,1.837-15.529c-4.565-0.101-5.502,4.021-10.361,4.258c-0.071-0.434-0.497-0.509-0.606-0.913
			c0.072-3.149,2.796-4.86,5.478-3.651c0.341-1.594,1.569-2.294,1.828-3.959C332.47,288.267,326.985,307.254,337.969,307.452"/>
		<path fill-rule="evenodd" clip-rule="evenodd" fill="#B0241C" d="M107.405,298.921c-6.343,7.268-13.312,13.908-19.496,21.323
			c0.908,1.217,2.267,1.988,3.348,3.041c6.254-7.25,12.995-14.006,19.493-21.015C110.011,300.774,108.896,299.663,107.405,298.921"
			/>
		<path fill-rule="evenodd" clip-rule="evenodd" fill="#B0241C" d="M309.947,308.062c-0.674,1.352-2.371,1.692-3.042,3.044
			c6.014,7.381,12.046,14.756,17.966,22.239c1.613-0.424,2.267-1.8,3.653-2.439C322.612,323.006,316.524,315.288,309.947,308.062"/>
		<path fill-rule="evenodd" clip-rule="evenodd" fill="#B0241C" d="M277.056,329.076c-6.265,1.761-11.417,4.618-17.666,6.401
			c0.185,2.042,0.929,3.528,1.828,4.868c1.955-0.987,4.039-1.849,6.396-2.441c2.951,7.5,5.607,15.309,8.826,22.547
			c1.176-0.962,3.31-0.962,4.265-2.133c-3.016-7.338-6.067-14.641-8.528-22.542c2.471-0.37,4.015-1.673,6.396-2.136
			C278.172,332.02,277.318,330.845,277.056,329.076"/>
		<path fill-rule="evenodd" clip-rule="evenodd" fill="#B0241C" d="M293.807,329.375c-1.685,0.554-3.27,1.205-4.267,2.441
			c3.575,5.771,6.805,11.874,10.051,17.974c1.549-0.59,3.145-1.126,3.956-2.438C300.343,341.322,296.834,335.593,293.807,329.375"/>
		<path fill-rule="evenodd" clip-rule="evenodd" fill="#B0241C" d="M282.857,337.948c-0.343-0.882-0.382-2.064-1.53-2.133
			c-1.071,0.646-2.437,1.004-3.345,1.826c3.128,6.112,6.047,12.428,8.831,18.885c1.666-0.365,2.596-1.464,4.267-1.827
			c-1.095-4.373-8.026-12.596-4.267-16.447c0.917-0.752,2.206,0.455,2.439-0.61c-0.596-1.229-0.413-3.244-0.918-4.568
			C284.343,332.526,283.555,335.195,282.857,337.948"/>
		<path fill-rule="evenodd" clip-rule="evenodd" fill="#B0241C" d="M213.092,342.17c-0.178,9.924,0.536,18.962,0.308,28.936h4.562
			c0.208-9.948-0.518-18.972-0.301-28.936H213.092z"/>
		<path fill-rule="evenodd" clip-rule="evenodd" fill="#B0241C" d="M241.416,348.262c-3.225,2.885-2.1,9.012,1.52,10.662
			c3.206,1.464,8.897-0.094,9.444,2.438c0.382,1.738-2.19,3.34-4.261,3.049c-2.176-0.313-1.908-1.964-3.349-2.745
			c-0.83,1.104-3.271,0.593-3.66,2.133c3.238,9.771,20.808,2.268,14.618-6.702c-1.862-2.711-11.414-1.961-11.874-4.263
			c-0.749-3.729,6.854-2.29,7.006-0.61c0.828-0.798,2.16-1.082,3.352-1.522C253.266,345.581,245.199,344.896,241.416,348.262"/>
		<path fill-rule="evenodd" clip-rule="evenodd" fill="#B0241C" d="M336.747,311.105c-1.247,1.405-2.139,2.586-3.956,4.264
			c-0.797,0.741-4.282,2.926-4.264,3.653c0.069,3.673,10.541,2.397,6.395-2.432c0.772-1.359,2.655-1.616,3.653-2.743
			c4.154,6.14-1.264,11.375-4.868,11.877c-6.274,0.876-13.845-6.595-13.711-13.096C320.199,303.206,333.551,304.817,336.747,311.105
			 M326.393,316.591c1.288-1.964,3.587-2.912,4.876-4.876C327.221,306.759,321.204,313.167,326.393,316.591"/>
		<path fill-rule="evenodd" clip-rule="evenodd" fill="#B0241C" d="M119.278,329.375c0.759,3.901-0.265,10.221-1.222,14.322
			c-0.896,0.83-3.163-2.062-4.562-2.742c0.19-5.135,3.471-13.877-1.529-16.14c-2.693,2.985-4.827,6.541-7.305,9.744
			c-1.36-0.877-2.567-1.903-3.958-2.743c5.717-7.782,11.367-15.642,17.058-23.448c2.722,3.117,12.711,5.901,13.092,12.182
			C131.185,325.928,125.79,331.753,119.278,329.375 M114.711,321.155c2.819,1.045,4.096,5.01,7.915,4.263
			c1.896-0.367,3.417-2.64,2.744-5.172c-0.61-2.297-5.431-3.736-6.701-5.184C117.569,317.318,115.618,318.716,114.711,321.155"/>
		<path fill-rule="evenodd" clip-rule="evenodd" fill="#B0241C" d="M310.554,340.284c1.425,3.445,3.903,5.85,5.478,9.136
			c-1.657,0.375-2.273,1.785-3.956,2.133c-5.068-8.232-10.675-15.916-15.531-24.364c1.195-0.734,2.222-1.638,3.653-2.13
			c0.224,0.886,0.74,1.498,1.217,2.13c3.563-15.177,19.398-0.23,17.362,9.444C318.178,339.479,314.551,342.266,310.554,340.284
			 M304.157,327.495c-1.632,4.917,4.712,10.843,7.918,10.049c6.145-1.513-1.895-12.415-5.175-11.876
			C305.877,325.839,304.536,326.358,304.157,327.495"/>
		<path fill-rule="evenodd" clip-rule="evenodd" fill="#B0241C" d="M139.687,345.526c-3.749-1.432-6.634-3.722-10.357-5.181
			c-3.142,3.983,1.985,9.111,5.183,5.181c0.772,1.249,2.604,1.445,3.042,3.042c-5.616,5.906-14.702,0.767-13.398-7.308
			c0.604-3.775,3.625-8.398,6.091-10.049C138.884,325.392,145.994,337.209,139.687,345.526 M131.156,337.302
			c2.118,0.926,3.749,2.344,6.091,3.044C140.625,334.498,132.215,331.733,131.156,337.302"/>
		<path fill-rule="evenodd" clip-rule="evenodd" fill="#B0241C" d="M145.165,335.169c1.883,0.156,2.908,1.155,4.573,1.525
			c-0.241,5.238-1.252,9.707-1.524,14.923c3.104-2.682,5.915-8.307,9.439-11.578c1.419,0.414,2.623,1.041,3.968,1.528
			c-1.74,2.975-5.212,6.553-8.532,10.654c-4.426,5.465-8.935,16.188-17.362,10.661c0.387-1.439,0.829-2.825,1.214-4.266
			c2.215,2.256,5.585,0.659,6.703-1.521C143.881,349.519,144.959,342.777,145.165,335.169"/>
		<path fill-rule="evenodd" clip-rule="evenodd" fill="#B0241C" d="M183.238,339.131c1.65-0.027,2.536,0.71,4.266,0.603
			c-1.565,9.907-4.059,18.884-5.783,28.638c-1.503-0.226-2.818-0.642-4.266-0.919c0.318-0.7,0.19-1.834,0.609-2.437
			c-1.505,0.507-3.427,2.647-6.703,1.824c-8.417-2.104-4.366-23.898,5.79-21.621c1.636,0.369,2.62,1.665,3.648,3.655
			C182.154,346.163,182.242,342.185,183.238,339.131 M174.712,362.883c5.08,0.191,7.348-13.656,1.526-13.093
			C171.41,350.253,169.155,362.678,174.712,362.883"/>
		<path fill-rule="evenodd" clip-rule="evenodd" fill="#B0241C" d="M202.123,362.278c-3.57-0.69-7.645-0.882-11.268-1.528
			c-2.021,4.719,4.924,8.101,6.395,3.353c1.679,0.152,2.715,0.94,4.264,1.217c-1.447,2.951-3.103,5.284-6.696,5.487
			c-15.854,0.875-7.902-29.144,4.265-21.017C202.06,351.773,202.906,356.465,202.123,362.278 M191.156,357.403
			c2.151,0.494,4.72,0.562,7.01,0.913C199.396,351.541,190.988,351.624,191.156,357.403"/>
		<path fill-rule="evenodd" clip-rule="evenodd" fill="#B0241C" d="M227.101,349.484c1.87-0.399,3.744-0.473,5.181,0
			c6.528,2.154,7.98,15.292,2.736,19.792C223.139,379.492,213.452,352.42,227.101,349.484 M230.448,366.541
			c5.142-0.881,4.048-13.715-1.825-12.791C222.318,354.739,224.801,367.504,230.448,366.541"/>
	</g>
</g>
</svg>
